<svg xmlns="http://www.w3.org/2000/svg" viewBox="0 0 240 240" preserveAspectRatio="xMidYMid slice">
  <g fill="none" stroke="#000" stroke-width="0.6" stroke-linecap="round" opacity="0.5">
    <path d="M18 34 L62 48 L92 41 L128 70 L158 64"/>
    <path d="M170 22 L158 58 L182 92"/>
    <path d="M210 50 L196 80"/>
    <path d="M40 124 L78 138 L116 122 L150 152 L188 146 L218 168"/>
    <path d="M22 188 L58 174 L92 192 L128 178"/>
    <path d="M148 200 L172 222"/>
    <path d="M196 198 L226 218"/>
    <path d="M62 14 L70 38"/>
    <path d="M118 6 L122 26"/>
    <path d="M8 96 L34 102"/>
    <path d="M226 110 L210 132"/>
  </g>
  <g fill="none" stroke="#000" stroke-width="0.3" stroke-linecap="round" opacity="0.35">
    <path d="M82 70 L94 84"/>
    <path d="M132 100 L150 112"/>
    <path d="M70 158 L84 168"/>
    <path d="M178 80 L188 96"/>
    <path d="M50 60 L40 72"/>
    <path d="M204 160 L214 174"/>
  </g>
</svg>
